<?xml version="1.0" standalone="no"?><svg xmlns:xlink="http://www.w3.org/1999/xlink" xmlns="http://www.w3.org/2000/svg" viewBox="0 0 100000 56250.23053373169" preserveAspectRatio="xMaxYMax slice"><g transform="scale(92.21349267824867)"><rect x="0" y="0" width="1084.4444444444443" height="610" fill="#ffffff"/><circle cx="33.89" cy="33.89" r="6.78" fill="#ff6f92"/><circle cx="101.67" cy="33.89" r="6.78" fill="#ffbfce"/><circle cx="169.45" cy="33.89" r="6.78" fill="#274ce3"/><circle cx="237.22" cy="33.89" r="6.78" fill="#2247e2"/><circle cx="305" cy="33.89" r="6.78" fill="#3859e5"/><circle cx="372.78" cy="33.89" r="6.78" fill="#c4cef7"/><circle cx="440.55999999999995" cy="33.89" r="6.78" fill="#b5c1f5"/><circle cx="508.34" cy="33.89" r="6.78" fill="#9bacf2"/><circle cx="576.11" cy="33.89" r="6.78" fill="#b9c5f6"/><circle cx="643.89" cy="33.89" r="6.78" fill="#4f6de8"/><circle cx="711.67" cy="33.89" r="6.78" fill="#8096ef"/><circle cx="779.4499999999999" cy="33.89" r="6.78" fill="#ffffff"/><circle cx="847.22" cy="33.89" r="6.78" fill="#3d5ee6"/><circle cx="915" cy="33.89" r="6.78" fill="#ff6f91"/><circle cx="982.78" cy="33.89" r="6.78" fill="#ffb4c6"/><circle cx="1050.56" cy="33.89" r="6.78" fill="#4060e6"/><circle cx="33.89" cy="101.67" r="6.78" fill="#ffaec1"/><circle cx="101.67" cy="101.67" r="6.78" fill="#667feb"/><circle cx="169.45" cy="101.67" r="6.78" fill="#dfe4fb"/><circle cx="237.22" cy="101.67" r="6.78" fill="#ffe0e7"/><circle cx="305" cy="101.67" r="6.78" fill="#ff9fb6"/><circle cx="372.78" cy="101.67" r="6.78" fill="#ffedf1"/><circle cx="440.55999999999995" cy="101.67" r="6.78" fill="#ffb9c9"/><circle cx="508.34" cy="101.67" r="6.78" fill="#ffcbd7"/><circle cx="576.11" cy="101.67" r="6.78" fill="#ff6388"/><circle cx="643.89" cy="101.67" r="6.78" fill="#395ae5"/><circle cx="711.67" cy="101.67" r="6.78" fill="#ff557d"/><circle cx="779.4499999999999" cy="101.67" r="6.78" fill="#ffd5df"/><circle cx="847.22" cy="101.67" r="6.78" fill="#3e5fe6"/><circle cx="915" cy="101.67" r="6.78" fill="#95a7f1"/><circle cx="982.78" cy="101.67" r="6.78" fill="#ff4d77"/><circle cx="1050.56" cy="101.67" r="6.78" fill="#aebbf4"/><circle cx="33.89" cy="169.45" r="6.78" fill="#ffd7e1"/><circle cx="101.67" cy="169.45" r="6.78" fill="#ffdee6"/><circle cx="169.45" cy="169.45" r="6.78" fill="#ffc1d0"/><circle cx="237.22" cy="169.45" r="6.78" fill="#ffdde5"/><circle cx="305" cy="169.45" r="6.78" fill="#ffe7ed"/><circle cx="372.78" cy="169.45" r="6.78" fill="#4a69e8"/><circle cx="440.55999999999995" cy="169.45" r="6.78" fill="#254ae3"/><circle cx="508.34" cy="169.45" r="6.78" fill="#b3c0f5"/><circle cx="576.11" cy="169.45" r="6.78" fill="#3053e4"/><circle cx="643.89" cy="169.45" r="6.78" fill="#6d86ec"/><circle cx="711.67" cy="169.45" r="6.78" fill="#4060e6"/><circle cx="779.4499999999999" cy="169.45" r="6.78" fill="#ff9eb5"/><circle cx="847.22" cy="169.45" r="6.78" fill="#8599ef"/><circle cx="915" cy="169.45" r="6.78" fill="#e4e8fb"/><circle cx="982.78" cy="169.45" r="6.78" fill="#ff3c6a"/><circle cx="1050.56" cy="169.45" r="6.78" fill="#ff99b2"/><circle cx="33.89" cy="237.22" r="6.78" fill="#ff8aa6"/><circle cx="101.67" cy="237.22" r="6.78" fill="#8499ef"/><circle cx="169.45" cy="237.22" r="6.78" fill="#ff3666"/><circle cx="237.22" cy="237.22" r="6.78" fill="#3759e5"/><circle cx="305" cy="237.22" r="6.78" fill="#6781eb"/><circle cx="372.78" cy="237.22" r="6.78" fill="#4564e7"/><circle cx="440.55999999999995" cy="237.22" r="6.78" fill="#8b9ff0"/><circle cx="508.34" cy="237.22" r="6.78" fill="#f4f6fe"/><circle cx="576.11" cy="237.22" r="6.78" fill="#ff5e84"/><circle cx="643.89" cy="237.22" r="6.78" fill="#b1bef5"/><circle cx="711.67" cy="237.22" r="6.78" fill="#899df0"/><circle cx="779.4499999999999" cy="237.22" r="6.78" fill="#ffdde5"/><circle cx="847.22" cy="237.22" r="6.78" fill="#3457e5"/><circle cx="915" cy="237.22" r="6.78" fill="#1c42e2"/><circle cx="982.78" cy="237.22" r="6.78" fill="#a5b4f3"/><circle cx="1050.56" cy="237.22" r="6.78" fill="#ff83a0"/><circle cx="33.89" cy="305" r="6.78" fill="#ff98b1"/><circle cx="101.67" cy="305" r="6.78" fill="#274be3"/><circle cx="169.45" cy="305" r="6.78" fill="#ff567e"/><circle cx="237.22" cy="305" r="6.78" fill="#3456e5"/><circle cx="305" cy="305" r="6.78" fill="#3254e4"/><circle cx="372.78" cy="305" r="6.78" fill="#5773e9"/><circle cx="440.55999999999995" cy="305" r="6.78" fill="#dde3fb"/><circle cx="508.34" cy="305" r="6.78" fill="#ff7696"/><circle cx="576.11" cy="305" r="6.78" fill="#ff4b76"/><circle cx="643.89" cy="305" r="6.78" fill="#ff3c6a"/><circle cx="711.67" cy="305" r="6.78" fill="#ff436f"/><circle cx="779.4499999999999" cy="305" r="6.78" fill="#fcfdff"/><circle cx="847.22" cy="305" r="6.78" fill="#ffbdcc"/><circle cx="915" cy="305" r="6.78" fill="#ffb4c6"/><circle cx="982.78" cy="305" r="6.78" fill="#879bef"/><circle cx="1050.56" cy="305" r="6.78" fill="#6a83ec"/><circle cx="33.89" cy="372.78" r="6.78" fill="#ffc1cf"/><circle cx="101.67" cy="372.78" r="6.78" fill="#f8fafe"/><circle cx="169.45" cy="372.78" r="6.78" fill="#d6ddfa"/><circle cx="237.22" cy="372.78" r="6.78" fill="#ff9db4"/><circle cx="305" cy="372.78" r="6.78" fill="#2046e2"/><circle cx="372.78" cy="372.78" r="6.78" fill="#d1d9f9"/><circle cx="440.55999999999995" cy="372.78" r="6.78" fill="#c0caf7"/><circle cx="508.34" cy="372.78" r="6.78" fill="#ffdce4"/><circle cx="576.11" cy="372.78" r="6.78" fill="#d1d8f9"/><circle cx="643.89" cy="372.78" r="6.78" fill="#dfe5fb"/><circle cx="711.67" cy="372.78" r="6.78" fill="#4f6de8"/><circle cx="779.4499999999999" cy="372.78" r="6.78" fill="#ff5c83"/><circle cx="847.22" cy="372.78" r="6.78" fill="#c0caf7"/><circle cx="915" cy="372.78" r="6.78" fill="#637deb"/><circle cx="982.78" cy="372.78" r="6.78" fill="#b5c1f5"/><circle cx="1050.56" cy="372.78" r="6.78" fill="#9eaef2"/><circle cx="33.89" cy="440.55999999999995" r="6.78" fill="#657feb"/><circle cx="101.67" cy="440.55999999999995" r="6.78" fill="#ffe7ed"/><circle cx="169.45" cy="440.55999999999995" r="6.78" fill="#e7ebfc"/><circle cx="237.22" cy="440.55999999999995" r="6.78" fill="#ff8ca7"/><circle cx="305" cy="440.55999999999995" r="6.78" fill="#4c6be8"/><circle cx="372.78" cy="440.55999999999995" r="6.78" fill="#ff3666"/><circle cx="440.55999999999995" cy="440.55999999999995" r="6.78" fill="#ff6b8e"/><circle cx="508.34" cy="440.55999999999995" r="6.78" fill="#5c77ea"/><circle cx="576.11" cy="440.55999999999995" r="6.78" fill="#4a69e8"/><circle cx="643.89" cy="440.55999999999995" r="6.78" fill="#5f7aea"/><circle cx="711.67" cy="440.55999999999995" r="6.78" fill="#2348e2"/><circle cx="779.4499999999999" cy="440.55999999999995" r="6.78" fill="#a1b1f3"/><circle cx="847.22" cy="440.55999999999995" r="6.78" fill="#4c6ae8"/><circle cx="915" cy="440.55999999999995" r="6.78" fill="#6983ec"/><circle cx="982.78" cy="440.55999999999995" r="6.78" fill="#ffd5df"/><circle cx="1050.56" cy="440.55999999999995" r="6.78" fill="#1d43e2"/><circle cx="33.89" cy="508.34" r="6.78" fill="#ff88a4"/><circle cx="101.67" cy="508.34" r="6.78" fill="#ff557d"/><circle cx="169.45" cy="508.34" r="6.78" fill="#ff9eb5"/><circle cx="237.22" cy="508.34" r="6.78" fill="#6a83ec"/><circle cx="305" cy="508.34" r="6.78" fill="#3255e4"/><circle cx="372.78" cy="508.34" r="6.78" fill="#ffe0e7"/><circle cx="440.55999999999995" cy="508.34" r="6.78" fill="#7c92ee"/><circle cx="508.34" cy="508.34" r="6.78" fill="#ffd7e1"/><circle cx="576.11" cy="508.34" r="6.78" fill="#ffbacb"/><circle cx="643.89" cy="508.34" r="6.78" fill="#c0cbf7"/><circle cx="711.67" cy="508.34" r="6.78" fill="#b1bef5"/><circle cx="779.4499999999999" cy="508.34" r="6.78" fill="#ffb2c4"/><circle cx="847.22" cy="508.34" r="6.78" fill="#d7defa"/><circle cx="915" cy="508.34" r="6.78" fill="#ff5f85"/><circle cx="982.78" cy="508.34" r="6.78" fill="#4d6be8"/><circle cx="1050.56" cy="508.34" r="6.78" fill="#ff95ae"/><circle cx="33.89" cy="576.11" r="6.78" fill="#ff9cb3"/><circle cx="101.67" cy="576.11" r="6.78" fill="#ff6287"/><circle cx="169.45" cy="576.11" r="6.78" fill="#ffabbf"/><circle cx="237.22" cy="576.11" r="6.78" fill="#ffd5df"/><circle cx="305" cy="576.11" r="6.78" fill="#9faff3"/><circle cx="372.78" cy="576.11" r="6.78" fill="#f9fafe"/><circle cx="440.55999999999995" cy="576.11" r="6.78" fill="#9daef2"/><circle cx="508.34" cy="576.11" r="6.78" fill="#fafbfe"/><circle cx="576.11" cy="576.11" r="6.78" fill="#869bef"/><circle cx="643.89" cy="576.11" r="6.78" fill="#e3e7fb"/><circle cx="711.67" cy="576.11" r="6.78" fill="#fffbfc"/><circle cx="779.4499999999999" cy="576.11" r="6.78" fill="#91a3f1"/><circle cx="847.22" cy="576.11" r="6.78" fill="#ff678b"/><circle cx="915" cy="576.11" r="6.78" fill="#ff6388"/><circle cx="982.78" cy="576.11" r="6.78" fill="#516ee8"/><circle cx="1050.56" cy="576.11" r="6.78" fill="#758ced"/></g></svg>